<?xml version='1.0' encoding='utf-8'?>
<svg xmlns="http://www.w3.org/2000/svg" viewBox="0 0 640 480"> <g fill-rule="evenodd"> <path d="m195.48 0.0248c-15.574-0.4227-27.406 4.8236-38.483 14.718-7.6794-6.2114-21.19-5.4595-31.462-6.9371-42.463-4.0473-87.743 12.482-109.42 49.224-9.2578 14.343-18.077 31.238-15.742 49.307 1.5791 8.0326 12.139 9.0766 17.44 4.6875 1.5999-0.31543 3.419-5.1246 3.8295-1.625 4.1621 12.115 12.997 22.225 19.352 33.25 3.2403 19.639-8.4658 38.675-2.1274 58.156 7.3067 13.235 24.506 15.099 37.78 13.875 10.598-0.25671 24.271 1.5311 31.324-7.6875 5.3265-10.45-4.7885-20.859-7.4914-30.906-1.71-5.2771-3.213-13.255 1.5211-16.75 4.9719 0.74097 8.822 5.345 14.126 5.3125 9.8928 2.0148 19.923-1.3687 29.285-1.9062 7.3125 11.319 0.61438 24.13 0.20081 36-0.070587 7.4249 6.096 13.517 13.341 14.5 12.304 3.0763 25.084 1.4764 37.339 0.5625 8.9966-1.9608 15.528-11.966 11.286-21.062-3.782-11.263-9.1241-23.416-4.7072-34.812 2.3501-7.7512 9.5702-12.184 16.779-14.594 1.7194-0.9328 7.8378-5.3862 7.3471-3.6916-8.7995 9.8527-20.621 21.585-16.821 36.66 2.5047 10.739 8.3509 22.173 18.402 27.688 13.897 6.0406 32.245-6.4928 28.315-21.781-1.2625-4.535-5.7784-7.315-9.1466-9.7188 1.5061-5.9684 8.6871-8.4462 12.752-12.531 14.177-10.299 26.96-23.547 31.465-41.094 10.3-33.358 0.89474-73.533-24.249-99.654-15.556-13.636-36.934-15.365-56.11-18.408-5.3689-0.58075-10.762-0.90045-16.131-0.78125z" fill="#7f7f7f"/> <path d="m265.41 145.16c8.772-7.554 24.051-23.922 22.445-57.916s-20.72-65.47-37.295-69.877c-16.576-4.4067-83.776-27.699-94.017 22.033s31.451 66.1 42.064 64.211c10.612-1.888 21.324-28.328 21.324-28.328s-3.668 28.958-16.739 32.106c-13.071 3.147-46.044-1.889-55.324-38.401-9.279-36.512 9.76-46.585-2.979-49.732-16.968-4.1925-62.169-10.072-97.462 15.738s-46.163 75.542-36.958 70.506c9.2049-5.036 12.838-21.404 15.292-9.4428 2.4537 11.961 12.159 30.847 20.7 38.401 8.5407 7.554-3.7672 53.509-1.492 61.693s15.614 10.702 25.686 10.702 32.765 0.63 31.179-6.295-9.7354-19.515-10.989-32.735c-1.2541-13.22 7.9805-17.627 11.787-16.997 3.807 0.629 5.938 6.075 21.701 6.295 15.112 0.20999 14.9-4.407 21.225-3.777 6.325 0.62901 10.549 10.072 11.084 21.403 0.53499 11.332-3.425 20.775-3.128 27.07 0.298 6.295 45.683 7.554 47.214 0 1.532-7.554-6.498-17.627-6.944-27.07-0.446-9.442-0.080002-28.328 11.643-33.364s23.778-16.368 31.69-8.814c7.911 7.555-19.674 23.293-19.649 37.142 0.024002 13.85 12.669 28.329 15.817 28.329s16.189-3.777 16.462-11.332c0.272-7.554-10.311-5.036-10.727-13.849s17.255-19.832 26.39-27.699z" fill="#aae2ff"/> </g> <path d="m263.45 80.617c0.001495 3.4778-2.8174 6.298-6.2952 6.298s-6.2967-2.8202-6.2952-6.298c-0.001495-3.4778 2.8174-6.298 6.2952-6.298s6.2967 2.8202 6.2952 6.298z" fill="#3f3f3f" stroke-linecap="round" stroke-linejoin="round" stroke-width="2"/> </svg>